<?xml version="1.0" standalone="no"?>
<!DOCTYPE svg PUBLIC "-//W3C//DTD SVG 20010904//EN"
 "http://www.w3.org/TR/2001/REC-SVG-20010904/DTD/svg10.dtd">
<svg version="1.0" xmlns="http://www.w3.org/2000/svg"
 width="3458.000000pt" height="3458.000000pt" viewBox="0 0 3458.000000 3458.000000"
 preserveAspectRatio="xMidYMid meet">

<g transform="translate(0.000000,3458.000000) scale(0.100000,-0.100000)"
fill="#000000" stroke="none">
<path d="M26885 34349 c-2094 -120 -4005 -1217 -5173 -2971 -1134 -1701 -1420
-3870 -767 -5812 l47 -139 -2631 -2631 -2631 -2631 27 -28 28 -27 -658 -657
-657 -658 -27 28 -28 27 -4065 -4065 -4066 -4066 -174 25 c-309 44 -410 51
-755 51 -247 -1 -371 -5 -495 -18 -1057 -115 -1992 -518 -2780 -1198 -151
-131 -436 -417 -550 -554 -518 -621 -852 -1275 -1040 -2039 -287 -1163 -151
-2385 382 -3450 71 -143 195 -366 203 -366 2 0 -17 46 -42 103 -386 890 -497
1942 -307 2932 339 1764 1623 3230 3329 3800 779 261 1589 327 2408 198 l108
-17 3374 3374 3375 3375 0 -127 c0 -481 184 -948 520 -1318 l50 -55 337 338
338 337 185 -185 185 -185 -719 -719 -719 -719 124 -65 c68 -36 356 -187 639
-335 283 -148 589 -309 678 -357 l164 -88 529 529 529 529 232 -233 233 -232
84 -343 c46 -188 144 -587 218 -887 l134 -545 5597 -5598 5596 -5598 -164
-164 -165 -165 205 -206 c220 -221 325 -312 433 -376 392 -230 905 -201 1263
71 115 87 4489 4467 4544 4550 145 217 207 436 197 696 -6 176 -35 294 -110
449 -75 154 -142 237 -401 496 l-226 225 -163 -163 -162 -162 -5594 5594
c-5260 5260 -5597 5595 -5640 5606 -25 7 -428 106 -896 221 l-850 209 -1027
1028 -1028 1027 337 337 337 337 -20 22 c-10 12 -59 55 -109 97 -246 207 -542
349 -868 418 -94 19 -165 27 -304 31 -101 3 -183 9 -183 12 0 3 814 820 1810
1816 l1810 1810 -59 180 c-332 1014 -416 2124 -241 3170 208 1244 749 2380
1585 3330 232 263 627 633 915 856 1436 1112 3256 1587 5065 1323 191 -28 503
-90 673 -133 62 -16 112 -26 110 -22 -12 31 -284 517 -291 523 -17 11 -335 85
-502 117 -537 103 -1111 141 -1650 110z"/>
<path d="M31510 27265 l-2195 -2193 -145 80 c-481 265 -995 605 -1434 947
-625 487 -1236 1072 -1740 1666 -341 403 -703 895 -941 1280 -135 218 -95 133
83 -175 380 -660 839 -1290 1372 -1885 164 -183 669 -691 840 -846 677 -610
1384 -1117 2114 -1518 l150 -82 2193 2193 2193 2193 -144 263 c-79 145 -146
265 -148 267 -2 2 -991 -983 -2198 -2190z"/>
<path d="M22010 22624 c-94 -16 -144 -30 -210 -60 -74 -34 -87 -47 -1098
-1057 l-1022 -1022 592 -309 c326 -171 658 -345 737 -388 79 -44 174 -94 211
-113 l67 -34 825 827 c781 782 827 831 861 899 53 107 71 201 64 336 -5 122
-21 189 -68 303 -64 154 -202 325 -350 434 -84 63 -233 135 -332 160 -77 19
-228 33 -277 24z"/>
<path d="M10853 11657 c-1345 -1346 -1453 -1457 -1482 -1517 -46 -97 -64 -181
-64 -295 0 -285 157 -574 417 -767 158 -118 318 -176 506 -185 137 -6 217 9
330 64 73 35 112 73 1713 1672 900 900 1637 1638 1637 1641 0 3 -75 43 -168
89 -170 86 -1238 641 -1368 711 l-71 39 -1450 -1452z"/>
<path d="M7956 6180 c-3 -8 -159 -589 -346 -1290 -188 -701 -345 -1278 -348
-1282 -4 -4 -632 -174 -1396 -379 l-1388 -372 -843 843 c-670 670 -844 839
-848 824 -4 -11 -15 -51 -26 -90 l-19 -71 1017 -1017 c559 -559 1021 -1016
1026 -1016 13 0 2766 737 2770 742 2 2 171 628 375 1392 l372 1389 -170 170
c-115 115 -173 166 -176 157z"/>
</g>
</svg>
